<svg width="100" height="100" viewBox="0 0 100 100" fill="none" xmlns="http://www.w3.org/2000/svg">
<path d="M74.5 59.5C74.5 62.6604 71.925 65.6561 67.4541 67.8916C63.013 70.1121 56.8428 71.5 50 71.5C43.1572 71.5 36.987 70.1121 32.5459 67.8916C28.075 65.6561 25.5 62.6604 25.5 59.5C25.5 56.3396 28.075 53.3439 32.5459 51.1084C36.987 48.8879 43.1572 47.5 50 47.5C56.8428 47.5 63.013 48.8879 67.4541 51.1084C71.925 53.3439 74.5 56.3396 74.5 59.5Z" fill="white" stroke="#00ADB5"/>
<path d="M74.5 53.5C74.5 56.6604 71.925 59.6561 67.4541 61.8916C63.013 64.1121 56.8428 65.5 50 65.5C43.1572 65.5 36.987 64.1121 32.5459 61.8916C28.075 59.6561 25.5 56.6604 25.5 53.5C25.5 50.3396 28.075 47.3439 32.5459 45.1084C36.987 42.8879 43.1572 41.5 50 41.5C56.8428 41.5 63.013 42.8879 67.4541 45.1084C71.925 47.3439 74.5 50.3396 74.5 53.5Z" fill="white" stroke="#00ADB5"/>
<path d="M74.5 47.5C74.5 50.6604 71.925 53.6561 67.4541 55.8916C63.013 58.1121 56.8428 59.5 50 59.5C43.1572 59.5 36.987 58.1121 32.5459 55.8916C28.075 53.6561 25.5 50.6604 25.5 47.5C25.5 44.3396 28.075 41.3439 32.5459 39.1084C36.987 36.8879 43.1572 35.5 50 35.5C56.8428 35.5 63.013 36.8879 67.4541 39.1084C71.925 41.3439 74.5 44.3396 74.5 47.5Z" fill="white" stroke="#00ADB5"/>
<path d="M74.5 41.5C74.5 44.6604 71.925 47.6561 67.4541 49.8916C63.013 52.1121 56.8428 53.5 50 53.5C43.1572 53.5 36.987 52.1121 32.5459 49.8916C28.075 47.6561 25.5 44.6604 25.5 41.5C25.5 38.3396 28.075 35.3439 32.5459 33.1084C36.987 30.8879 43.1572 29.5 50 29.5C56.8428 29.5 63.013 30.8879 67.4541 33.1084C71.925 35.3439 74.5 38.3396 74.5 41.5Z" fill="white" stroke="#00ADB5"/>
<line x1="25.5" y1="41" x2="25.5" y2="60" stroke="#00ADB5"/>
<line x1="74.5" y1="42" x2="74.5" y2="61" stroke="#00ADB5"/>
</svg>
